<svg width="24" height="17" viewBox="0 0 24 17" fill="none" xmlns="http://www.w3.org/2000/svg">
<path fill-rule="evenodd" clip-rule="evenodd" d="M0.8 1.54545H23.2C23.6418 1.54545 24 1.19949 24 0.772727C24 0.345962 23.6418 0 23.2 0H0.8C0.358172 0 0 0.345962 0 0.772727C0 1.19949 0.358172 1.54545 0.8 1.54545ZM23.2 9.27273H0.8C0.358172 9.27273 0 8.92677 0 8.5C0 8.07323 0.358172 7.72727 0.8 7.72727H23.2C23.6418 7.72727 24 8.07323 24 8.5C24 8.92677 23.6418 9.27273 23.2 9.27273ZM23.2 17H0.8C0.358172 17 0 16.654 0 16.2273C0 15.8005 0.358172 15.4545 0.8 15.4545H23.2C23.6418 15.4545 24 15.8005 24 16.2273C24 16.654 23.6418 17 23.2 17Z" fill="#51A3F5"/>
</svg>
